<?xml version="1.0" encoding="UTF-8"?>
<svg version="1.1" id="Layer_1" xmlns="http://www.w3.org/2000/svg" xmlns:xlink="http://www.w3.org/1999/xlink" x="0px" y="0px" viewBox="0 0 27.6 27.6" enable-background="new 0 0 27.6 27.6" xml:space="preserve">
<path fill="#fff" d="M26.5,22.7l-4.4-4.4c1.2-1.8,1.9-4,1.9-6.3c0-6.5-5.2-11.7-11.7-11.7C5.8,0.3,0.6,5.6,0.6,12  s5.2,11.7,11.7,11.7c2.3,0,4.5-0.7,6.3-1.9l4.4,4.4c1,1,2.6,1,3.5,0C27.5,25.3,27.5,23.7,26.5,22.7z M12.3,20.4  c-4.6,0-8.3-3.7-8.3-8.3s3.7-8.3,8.3-8.3c4.6,0,8.3,3.7,8.3,8.3C20.6,16.6,16.9,20.4,12.3,20.4z"/>
</svg>